<mxfile host="app.diagrams.net" agent="Mozilla/5.0 (Windows NT 10.0; Win64; x64) AppleWebKit/537.36 (KHTML, like Gecko) Chrome/128.0.0.0 Safari/537.36" version="24.7.8">
  <diagram name="Page-1" id="ZC99gcRxFR1v_KSiyPcI">
    <mxGraphModel dx="1050" dy="557" grid="1" gridSize="10" guides="1" tooltips="1" connect="1" arrows="1" fold="1" page="1" pageScale="1" pageWidth="827" pageHeight="1169" math="0" shadow="0">
      <root>
        <mxCell id="0" />
        <mxCell id="1" parent="0" />
        <mxCell id="ZVseGcndEOjWBaay9-FN-5" value="" style="edgeStyle=orthogonalEdgeStyle;rounded=0;orthogonalLoop=1;jettySize=auto;html=1;" edge="1" parent="1" source="ZVseGcndEOjWBaay9-FN-1" target="ZVseGcndEOjWBaay9-FN-3">
          <mxGeometry relative="1" as="geometry" />
        </mxCell>
        <mxCell id="ZVseGcndEOjWBaay9-FN-1" value="START" style="rounded=1;whiteSpace=wrap;html=1;" vertex="1" parent="1">
          <mxGeometry x="340" y="70" width="120" height="60" as="geometry" />
        </mxCell>
        <mxCell id="ZVseGcndEOjWBaay9-FN-2" value="END" style="rounded=1;whiteSpace=wrap;html=1;" vertex="1" parent="1">
          <mxGeometry x="354" y="710" width="120" height="60" as="geometry" />
        </mxCell>
        <mxCell id="ZVseGcndEOjWBaay9-FN-6" value="" style="edgeStyle=orthogonalEdgeStyle;rounded=0;orthogonalLoop=1;jettySize=auto;html=1;" edge="1" parent="1" source="ZVseGcndEOjWBaay9-FN-3" target="ZVseGcndEOjWBaay9-FN-4">
          <mxGeometry relative="1" as="geometry" />
        </mxCell>
        <mxCell id="ZVseGcndEOjWBaay9-FN-3" value="x(int)&lt;div&gt;&#39;enter a num 1&#39;&lt;/div&gt;" style="shape=card;whiteSpace=wrap;html=1;" vertex="1" parent="1">
          <mxGeometry x="330" y="190" width="140" height="80" as="geometry" />
        </mxCell>
        <mxCell id="ZVseGcndEOjWBaay9-FN-4" value="y(int)&lt;div&gt;&#39;enter a num 2&#39;&lt;/div&gt;" style="shape=card;whiteSpace=wrap;html=1;" vertex="1" parent="1">
          <mxGeometry x="335" y="300" width="130" height="80" as="geometry" />
        </mxCell>
        <mxCell id="ZVseGcndEOjWBaay9-FN-18" value="" style="edgeStyle=orthogonalEdgeStyle;rounded=0;orthogonalLoop=1;jettySize=auto;html=1;entryX=0.023;entryY=0.117;entryDx=0;entryDy=0;entryPerimeter=0;" edge="1" parent="1" source="ZVseGcndEOjWBaay9-FN-7" target="ZVseGcndEOjWBaay9-FN-2">
          <mxGeometry relative="1" as="geometry">
            <mxPoint x="220" y="720" as="targetPoint" />
          </mxGeometry>
        </mxCell>
        <mxCell id="ZVseGcndEOjWBaay9-FN-7" value="print(y, x)" style="shape=document;whiteSpace=wrap;html=1;boundedLbl=1;" vertex="1" parent="1">
          <mxGeometry x="160" y="560" width="120" height="80" as="geometry" />
        </mxCell>
        <mxCell id="ZVseGcndEOjWBaay9-FN-15" style="edgeStyle=orthogonalEdgeStyle;rounded=0;orthogonalLoop=1;jettySize=auto;html=1;" edge="1" parent="1" source="ZVseGcndEOjWBaay9-FN-8" target="ZVseGcndEOjWBaay9-FN-9">
          <mxGeometry relative="1" as="geometry" />
        </mxCell>
        <mxCell id="ZVseGcndEOjWBaay9-FN-16" style="edgeStyle=orthogonalEdgeStyle;rounded=0;orthogonalLoop=1;jettySize=auto;html=1;exitX=0;exitY=0.5;exitDx=0;exitDy=0;" edge="1" parent="1" source="ZVseGcndEOjWBaay9-FN-8" target="ZVseGcndEOjWBaay9-FN-7">
          <mxGeometry relative="1" as="geometry" />
        </mxCell>
        <mxCell id="ZVseGcndEOjWBaay9-FN-8" value="x&amp;gt;y" style="rhombus;whiteSpace=wrap;html=1;" vertex="1" parent="1">
          <mxGeometry x="340" y="400" width="131" height="128" as="geometry" />
        </mxCell>
        <mxCell id="ZVseGcndEOjWBaay9-FN-19" style="edgeStyle=orthogonalEdgeStyle;rounded=0;orthogonalLoop=1;jettySize=auto;html=1;entryX=1;entryY=0;entryDx=0;entryDy=0;" edge="1" parent="1" source="ZVseGcndEOjWBaay9-FN-9" target="ZVseGcndEOjWBaay9-FN-2">
          <mxGeometry relative="1" as="geometry" />
        </mxCell>
        <mxCell id="ZVseGcndEOjWBaay9-FN-9" value="print(x, y)" style="shape=document;whiteSpace=wrap;html=1;boundedLbl=1;" vertex="1" parent="1">
          <mxGeometry x="570" y="570" width="120" height="80" as="geometry" />
        </mxCell>
      </root>
    </mxGraphModel>
  </diagram>
</mxfile>
